<svg id="visual" viewBox="0 0 1920 300" width="1920" height="300" xmlns="http://www.w3.org/2000/svg" xmlns:xlink="http://www.w3.org/1999/xlink" version="1.1"><path d="M0 233L64 233.7C128 234.3 256 235.7 384 238C512 240.3 640 243.7 768 246.3C896 249 1024 251 1152 246.7C1280 242.3 1408 231.7 1536 229C1664 226.3 1792 231.7 1856 234.3L1920 237L1920 301L1856 301C1792 301 1664 301 1536 301C1408 301 1280 301 1152 301C1024 301 896 301 768 301C640 301 512 301 384 301C256 301 128 301 64 301L0 301Z" fill="#ffffff" stroke-linecap="round" stroke-linejoin="miter"></path></svg>