<svg width="1920" height="150" viewBox="0 0 1920 150" fill="none" xmlns="http://www.w3.org/2000/svg">
<path fill-rule="evenodd" clip-rule="evenodd" d="M1200 91.2539L1133 77.322C1067 63.3901 933 35.5263 800 18.808C667 2.08978 533 -3.48297 400 2.08978C267 7.66254 133 24.3808 67 32.7399L0 41.0991V141.409H67C133 141.409 267 141.409 400 141.409C533 141.409 667 141.409 800 141.409C933 141.409 1067 141.409 1133 141.409H1200V91.2539Z" fill="white" fill-opacity="0.5"/>
<path fill-rule="evenodd" clip-rule="evenodd" d="M1200 102.892L1133 89.8069C1067 76.7215 933 50.5506 800 34.848C667 19.1455 533 13.9113 400 19.1455C267 24.3797 133 40.0822 67 47.9335L0 55.7847V150H67C133 150 267 150 400 150C533 150 667 150 800 150C933 150 1067 150 1133 150H1200V102.892Z" fill="white" fill-opacity="0.3"/>
<path fill-rule="evenodd" clip-rule="evenodd" d="M1920 70.8702L1813 63.0643C1707 55.0529 1493 39.2357 1280 37.3869C1067 35.3327 853 47.247 640 53.2042C427 58.9559 213 58.9559 107 58.9559H0V130.031H107C213 130.031 427 130.031 640 130.031C853 130.031 1067 130.031 1280 130.031C1493 130.031 1707 130.031 1813 130.031H1920V70.8702Z" fill="white" fill-opacity="0.5"/>
<path fill-rule="evenodd" clip-rule="evenodd" d="M1920 90.8393L1813 83.0333C1707 75.022 1493 59.2047 1280 57.3559C1067 55.3017 853 67.216 640 73.1732C427 78.9249 213 78.9249 107 78.9249H0V150H107C213 150 427 150 640 150C853 150 1067 150 1280 150C1493 150 1707 150 1813 150H1920V90.8393Z" fill="white"/>
</svg>
